<?xml version="1.0" standalone="no"?>
<!-- Generator: Adobe Fireworks 10, Export SVG Extension by Aaron Beall (http://fireworks.abeall.com) . Version: 0.6.1  -->
<!DOCTYPE svg PUBLIC "-//W3C//DTD SVG 1.1//EN" "http://www.w3.org/Graphics/SVG/1.1/DTD/svg11.dtd">
<svg id="Untitled-Page%201" viewBox="0 0 104 71" style="background-color:#ffffff00" version="1.1"
	xmlns="http://www.w3.org/2000/svg" xmlns:xlink="http://www.w3.org/1999/xlink" xml:space="preserve"
	x="0px" y="0px" width="104px" height="71px"
>
	<g id="Layer%201">
		<g>
			<path id="Ellipse" d="M 0.5 48 C 0.5 35.8496 10.3496 26 22.5 26 C 34.6504 26 44.5 35.8496 44.5 48 C 44.5 60.1504 34.6504 70 22.5 70 C 10.3496 70 0.5 60.1504 0.5 48 Z" fill="#b4b4b4"/>
			<g>
				<path d="M 52.1259 66.617 C 52.71 67.9219 53.8228 68.5669 54.6513 68.9265 C 55.4445 69.2706 56.4158 69.4304 58.0541 69.2563 C 59.8038 69.0708 61.5392 68.1467 62.6103 67.6068 C 64.0004 66.9063 66.3856 65.1111 67.6052 64.1426 C 69.6912 62.4858 73.7392 59.5442 75.8388 57.3791 C 78.2356 54.9072 82.7178 49.6742 85.0605 47.1514 C 85.9926 46.1475 87.8934 44.175 88.848 43.1924 C 90.6343 41.3533 93.262 38.2106 95.1055 36.429 C 96.2795 35.2942 99.564 32.4601 100.8691 31.48 C 101.9672 30.6552 102.5924 29.5063 102.6805 28.6757 C 102.8156 27.4037 101.5947 24.9441 100.8691 23.8918 C 100.0566 22.7139 99.3246 21.9354 97.9667 20.675 C 96.3901 19.2117 93.2491 17.1973 91.9767 16.4685 C 90.2117 15.4575 86.4004 13.8768 84.4018 13.4992 C 83.9567 13.4148 82.905 13.1732 82.5904 13.4992 C 80.9012 15.2493 83.7296 21.668 82.9197 23.2319 C 82.0552 24.9022 80.7018 25.2372 79.1323 25.5414 C 76.6827 26.0157 69.0621 24.2707 66.7818 26.3662 C 65.1859 27.8328 66.1726 32.8938 65.4644 34.9443 C 64.8617 36.6893 63.4549 40.1451 62.5415 41.749 C 61.4923 43.5912 59.4751 47.1785 58.4658 49.1722 C 57.6392 50.8051 55.979 54.049 55.2547 55.7295 C 54.5175 57.4403 52.5266 60.6732 52.1259 62.4929 C 51.9046 63.4995 51.4125 65.0228 52.1259 66.617 Z" stroke="#b4b4b4" stroke-width="2" fill="none"/>
				<g>
					<path d="M 75.4142 23.5458 C 76.2498 23.5934 76.9748 23.6257 77.4971 23.6315 C 77.7062 23.6276 77.9223 23.6315 78.1359 23.6353 C 79.6475 23.645 80.532 23.6147 81.073 22.5708 C 81.3187 22.0966 81.0813 20.3142 80.8903 18.8817 C 80.6176 16.8319 80.3377 14.7306 80.7198 13.2833 L 69.9929 0 L 46.5 0 L 66.9889 24.0194 C 69.3137 23.21 72.7415 23.3918 75.4142 23.5458 Z" fill="#b4b4b4"/>
				</g>
				<path d="M 54.0197 59.0809 C 54.0197 59.0809 76.0253 42.4294 77.2938 36.9238 C 78.3295 32.4286 76.2267 32.8448 75.1801 33.1296 C 72.7209 33.7992 65.4805 36.264 65.4805 36.264 C 65.4805 36.264 56.6055 50.72 54.0197 59.0809 Z" fill="#b4b4b4"/>
				<path d="M 98.2452 40.8178 L 95.6755 43.588 L 91.944 41.9165 L 96.091 37.4457 L 98.2452 40.8178 Z" fill="#b4b4b4"/>
				<path d="M 103.5 36.1956 L 100.7572 38.7938 L 97.1408 36.8839 L 101.5677 32.6909 L 103.5 36.1956 Z" fill="#b4b4b4"/>
				<path d="M 78.2973 61.9175 L 75.5532 64.158 L 72.3209 62.5554 L 77.043 58.6994 L 78.2973 61.9175 Z" fill="#b4b4b4"/>
				<path d="M 69.488 68.0449 L 66.6377 70 L 63.7875 68.6403 L 68.8138 65.1923 L 69.488 68.0449 Z" fill="#b4b4b4"/>
				<path d="M 99.5517 23.067 C 99.5517 23.067 84.9177 38.7635 80.2026 43.588 C 74.5864 49.3347 65.7963 60.3484 56.4897 63.5652 C 55.3389 63.9628 51.7592 64.7186 51.7592 64.7186 L 52.7563 67.5964 L 55.0681 69.0804 L 60.8298 68.4593 L 72.8669 60.0275 L 81.9001 50.6698 L 102.3055 29.8053 L 102.6908 26.7786 L 99.5517 23.067 Z" fill="#b4b4b4"/>
			</g>
		</g>
	</g>
</svg>