<?xml version="1.0" standalone="no"?>
<!-- Generator: Adobe Fireworks 10, Export SVG Extension by Aaron Beall (http://fireworks.abeall.com) . Version: 0.6.1  -->
<!DOCTYPE svg PUBLIC "-//W3C//DTD SVG 1.1//EN" "http://www.w3.org/Graphics/SVG/1.1/DTD/svg11.dtd">
<svg id="Untitled-Page%201" viewBox="0 0 121 100" style="background-color:#ffffff00" version="1.1"
	xmlns="http://www.w3.org/2000/svg" xmlns:xlink="http://www.w3.org/1999/xlink" xml:space="preserve"
	x="0px" y="0px" width="121px" height="100px"
>
	<g id="Layer%201">
		<g>
			<g>
				<path d="M 120.5 98.1598 L 107.4095 100 L 0.5 84.9701 L 13.5905 83.1299 L 120.5 98.1598 Z" fill="#b4b4b4"/>
				<path d="M 107.4095 69.9396 L 120.5 71.7798 L 13.5905 86.8103 L 0.5 84.9701 L 107.4095 69.9396 Z" fill="#b4b4b4"/>
				<path d="M 44.1261 90.6592 C 66.9102 87.4567 66.9102 82.2443 44.1261 79.0417 L 53.9552 77.6593 C 82.1583 81.6248 82.1583 88.0762 53.9552 92.0416 L 44.1261 90.6592 Z" fill="#b4b4b4"/>
			</g>
			<path d="M 4.805 0 L 34.0158 19.2963 L 4.8904 36.8536 L 4.805 0 Z" fill="#b4b4b4"/>
			<path d="M 5.1907 0 L 2.5 0 L 2.5 84.9701 L 5.1907 84.9701 L 5.1907 0 Z" fill="#b4b4b4"/>
		</g>
	</g>
</svg>