<?xml version="1.0" standalone="no"?>
<!-- Generator: Adobe Fireworks 10, Export SVG Extension by Aaron Beall (http://fireworks.abeall.com) . Version: 0.6.1  -->
<!DOCTYPE svg PUBLIC "-//W3C//DTD SVG 1.1//EN" "http://www.w3.org/Graphics/SVG/1.1/DTD/svg11.dtd">
<svg id="Untitled-Page%201" viewBox="0 0 50 111" style="background-color:#ffffff00" version="1.1"
	xmlns="http://www.w3.org/2000/svg" xmlns:xlink="http://www.w3.org/1999/xlink" xml:space="preserve"
	x="0px" y="0px" width="50px" height="111px"
>
	<g id="Layer%201">
		<path d="M 35.4722 48.2131 C 35.939 48.6028 36.3601 49.092 36.6713 49.7354 L 48.2501 44.9863 C 49.2844 44.5694 49.7695 43.3903 49.3485 42.3675 L 31.9482 0.7414 C 31.6188 -0.0288 30.8682 -0.5 30.0719 -0.5 C 29.8156 -0.5 29.5502 -0.4558 29.2938 -0.3471 L 0.7543 11.3419 C -0.28 11.7689 -0.7743 12.9446 -0.3453 13.9708 L 13.1191 46.1744 C 12.2243 47.0624 11.198 48.1226 9.9063 49.4352 C 5.1387 54.2559 4.7595 57.0936 3.8938 65.3207 C 3.625 67.875 0.6182 72.6694 1.7336 75.8952 C 2.4579 77.8344 3.6295 79.2841 4.451 80.145 C 4.5712 80.2809 4.681 80.3805 4.7817 80.4802 C 5.094 80.7792 5.2954 80.9604 5.3583 81.0057 C 5.5219 81.1779 5.6981 81.341 5.8812 81.5222 L 6.5208 82.1384 L 6.8606 82.4736 L 7.491 83.0807 L 7.8308 83.416 L 8.1683 83.7422 L 8.1581 83.7604 C 15.5916 91.0818 16.4977 92.6494 21.7516 98.4576 C 27.3442 104.6375 29.7698 110.5 29.7698 110.5 C 29.7698 110.5 47.8839 104.5015 46.0625 101.475 C 44.241 98.4396 43.6185 93.9271 43.6185 93.9271 C 43.0328 83.3435 34.621 70.0416 35.2434 70.0416 C 35.2892 70.0416 35.3807 70.1141 35.518 70.2501 C 36.7628 71.4733 37.6324 72.1438 38.6393 72.1438 C 39.3623 72.1438 40.1404 71.8086 41.1838 71.0928 C 43.6918 69.3802 38.7033 64.0703 38.7033 64.0703 C 38.7033 64.0703 39.8475 63.7622 41.376 61.4969 C 42.9047 59.2225 33.5043 54.3929 33.5043 54.3929 C 33.5043 54.3929 37.5134 53.5853 35.8658 50.1874 C 35.8475 50.1522 35.8292 50.1251 35.8109 50.0876 C 35.4357 49.3639 34.9872 48.8995 34.4929 48.6096 C 33.9163 48.2755 33.3029 48.1667 32.7172 48.1667 C 31.9757 48.1667 31.2892 48.3298 30.8408 48.3298 C 30.6119 48.3298 30.4471 48.2856 30.3647 48.1577 C 29.9071 47.4338 29.184 45.4857 29.184 45.4857 C 27.9026 41.9971 26.374 41.0548 25.1121 41.0548 C 23.6475 41.0548 22.5297 42.2961 22.5297 42.2961 C 22.5297 42.2961 18.2368 45.0145 20.4153 54.3748 C 20.4347 54.428 20.4347 54.4744 20.4508 54.5277 C 20.5892 55.1166 20.7185 55.6887 20.8352 56.2233 C 22.5765 64.3149 21.4862 66.399 21.4862 66.399 C 20.7277 67.0515 20.0217 67.3051 19.3799 67.3051 C 18.0446 67.3051 16.9919 66.1906 16.3147 65.1848 C 16.2495 64.9855 16.1865 64.777 16.1224 64.5596 C 16.0664 64.3693 16.0217 64.17 15.9749 63.9706 C 15.2632 60.9713 15.1339 57.066 15.1248 56.7488 L 15.4554 56.2776 C 15.793 55.589 16.1957 55.0261 16.6075 54.5186 L 17.0561 55.5981 C 17.3764 56.3683 18.1361 56.8394 18.9325 56.8394 C 19.1876 56.8394 19.4553 56.785 19.7013 56.6854 L 19.9496 56.5858 C 19.8203 55.9967 19.6922 55.3987 19.5366 54.7452 C 19.5366 54.7361 19.5366 54.7361 19.5366 54.7361 L 18.9325 54.9819 C 18.9141 54.9819 18.8226 54.9819 18.7849 54.8913 L 18.0538 53.1334 L 17.8993 52.7687 L 17.6224 52.0891 L 14.5767 44.7688 C 14.5676 44.7688 14.5676 44.7778 14.5676 44.7778 L 1.387 13.2538 C 1.3584 13.1813 1.3961 13.0907 1.4682 13.0635 L 30.017 1.3655 C 30.0353 1.3564 30.0536 1.3564 30.0719 1.3564 C 30.0811 1.3564 30.1725 1.3564 30.2183 1.4459 L 47.6185 43.0754 C 47.646 43.1558 47.6093 43.2374 47.5361 43.2748 L 35.4722 48.2131 ZM 35.4722 48.2131 L 35.4722 48.2131 Z" fill="#b4b4b4"/>
	</g>
</svg>