<?xml version="1.0" standalone="no"?>
<!-- Generator: Adobe Fireworks 10, Export SVG Extension by Aaron Beall (http://fireworks.abeall.com) . Version: 0.6.1  -->
<!DOCTYPE svg PUBLIC "-//W3C//DTD SVG 1.1//EN" "http://www.w3.org/Graphics/SVG/1.1/DTD/svg11.dtd">
<svg id="Untitled-Page%201" viewBox="0 0 639 879" style="background-color:#ffffff00" version="1.1"
	xmlns="http://www.w3.org/2000/svg" xmlns:xlink="http://www.w3.org/1999/xlink" xml:space="preserve"
	x="0px" y="0px" width="639px" height="879px"
>
	<g id="Layer%201">
		<g id="Full%20Field">
			<path d="M 0 0 L 639 0 L 639 879 L 0 879 L 0 0 Z" fill="#5ca87a"/>
			<path d="M 43.1298 136.1754 L 596.1481 136.1754 L 596.1481 181.1024 L 43.1298 181.1024 L 43.1298 136.1754 Z" fill="#6db187"/>
			<path d="M 43.1298 54.1349 L 596.1481 54.1349 L 596.1481 95.1548 L 43.1298 95.1548 L 43.1298 54.1349 Z" fill="#6db187"/>
			<path d="M 43.1298 222.1222 L 596.1481 222.1222 L 596.1481 267.0491 L 43.1298 267.0491 L 43.1298 222.1222 Z" fill="#6db187"/>
			<path d="M 43.1298 310.0222 L 596.1481 310.0222 L 596.1481 354.9491 L 43.1298 354.9491 L 43.1298 310.0222 Z" fill="#6db187"/>
			<path d="M 43.1298 395.969 L 596.1481 395.969 L 596.1481 440.8952 L 43.1298 440.8952 L 43.1298 395.969 Z" fill="#6db187"/>
			<path d="M 43.1298 481.9158 L 596.1481 481.9158 L 596.1481 526.8413 L 43.1298 526.8413 L 43.1298 481.9158 Z" fill="#6db187"/>
			<path d="M 43.1298 569.8159 L 596.1481 569.8159 L 596.1481 614.7427 L 43.1298 614.7427 L 43.1298 569.8159 Z" fill="#6db187"/>
			<path d="M 43.1298 655.7618 L 596.1481 655.7618 L 596.1481 700.6888 L 43.1298 700.6888 L 43.1298 655.7618 Z" fill="#6db187"/>
			<path d="M 43.1298 743.6619 L 596.1481 743.6619 L 596.1481 788.5887 L 43.1298 788.5887 L 43.1298 743.6619 Z" fill="#6db187"/>
			<path d="M 0 449.2667 L 639 449.2667 L 639 879 L 0 879 L 0 449.2667 Z" fill="none"/>
			<path d="M 43.1292 63.9016 L 596.1481 63.9016 L 596.1481 815.9349 L 43.1292 815.9349 L 43.1292 63.9016 ZM 33.3587 54.1349 L 33.3587 825.7015 L 605.9186 825.7015 L 605.9186 54.1349 L 33.3587 54.1349 Z" fill="#a2cbb1"/>
			<path d="M 158.4229 63.9016 L 158.4229 210.4017 L 480.8536 210.4017 L 480.8536 63.9016 L 471.0832 63.9016 L 471.0832 200.6349 L 168.1934 200.6349 L 168.1934 63.9016 L 158.4229 63.9016 Z" fill="#a2cbb1"/>
			<path d="M 220.9554 63.9016 L 220.9554 142.0349 L 418.3219 142.0349 L 418.3219 63.9016 L 408.5514 63.9016 L 408.5514 132.2682 L 230.7259 132.2682 L 230.7259 63.9016 L 220.9554 63.9016 Z" fill="#a2cbb1"/>
			<path d="M 310.8447 170.3587 C 310.8447 165.504 314.7823 161.5683 319.639 161.5683 C 324.4949 161.5683 328.4325 165.504 328.4325 170.3587 C 328.4325 175.2128 324.4949 179.1484 319.639 179.1484 C 314.7823 179.1484 310.8447 175.2128 310.8447 170.3587 Z" fill="#a2cbb1"/>
			<path d="M 310.8447 439.9183 C 310.8447 435.0642 314.7823 431.1286 319.639 431.1286 C 324.4949 431.1286 328.4325 435.0642 328.4325 439.9183 C 328.4325 444.773 324.4949 448.7081 319.639 448.7081 C 314.7823 448.7081 310.8447 444.773 310.8447 439.9183 Z" fill="#a2cbb1"/>
			<path d="M 387.0553 210.4017 L 400.7347 210.4017 C 400.7347 210.4017 369.4682 249.8348 319.8829 249.8348 C 266.5111 249.8348 238.5425 210.4017 238.5425 210.4017 L 252.2213 210.4017 C 252.2213 210.4017 277.3805 239.9462 319.8829 239.9462 C 359.6991 239.9462 387.0553 210.4017 387.0553 210.4017 Z" fill="#a2cbb1"/>
			<path d="M 480.8536 815.9349 L 480.8536 669.7239 L 158.4229 669.7239 L 158.4229 815.9349 L 168.1934 815.9349 L 168.1934 679.4713 L 471.0832 679.4713 L 471.0832 815.9349 L 480.8536 815.9349 Z" fill="#a2cbb1"/>
			<path d="M 418.3219 815.9349 L 418.3219 737.9557 L 220.9554 737.9557 L 220.9554 815.9349 L 230.7259 815.9349 L 230.7259 747.7031 L 408.5514 747.7031 L 408.5514 815.9349 L 418.3219 815.9349 Z" fill="#a2cbb1"/>
			<path d="M 328.4325 709.6885 C 328.4325 714.5336 324.4949 718.4604 319.639 718.4604 C 314.7823 718.4604 310.8447 714.5336 310.8447 709.6885 C 310.8447 704.8433 314.7823 700.915 319.639 700.915 C 324.4949 700.915 328.4325 704.8433 328.4325 709.6885 Z" fill="#a2cbb1"/>
			<path d="M 252.2213 669.7239 L 238.5425 669.7239 C 238.5425 669.7239 269.8084 630.3683 319.3944 630.3683 C 372.7668 630.3683 400.7347 669.7239 400.7347 669.7239 L 387.0553 669.7239 C 387.0553 669.7239 361.8968 640.2372 319.3944 640.2372 C 279.5789 640.2372 252.2213 669.7239 252.2213 669.7239 Z" fill="#a2cbb1"/>
			<path d="M 43.1292 435.035 L 596.1481 435.035 L 596.1481 444.8016 L 43.1292 444.8016 L 43.1292 435.035 Z" fill="#a2cbb1"/>
			<path d="M 229.7489 439.9183 C 229.7489 390.2933 269.993 350.0651 319.639 350.0651 C 369.2842 350.0651 409.5283 390.2933 409.5283 439.9183 C 409.5283 489.5432 369.2842 529.7721 319.639 529.7721 C 269.993 529.7721 229.7489 489.5432 229.7489 439.9183 ZM 220.9554 439.9183 C 220.9554 494.3994 265.1364 538.5619 319.639 538.5619 C 374.1415 538.5619 418.3219 494.3994 418.3219 439.9183 C 418.3219 385.4386 374.1415 341.2753 319.639 341.2753 C 265.1364 341.2753 220.9554 385.4386 220.9554 439.9183 Z" fill="#a2cbb1"/>
			<path d="M 596.1481 798.3555 L 596.1481 788.5887 C 596.1481 788.5887 568.7905 788.5887 568.7905 815.9349 C 568.7905 816.0575 578.561 815.9349 578.561 815.9349 C 578.561 815.9349 576.6058 798.3555 596.1481 798.3555 Z" fill="#a2cbb1"/>
			<path d="M 60.736 815.9349 L 70.4874 815.9349 C 70.4874 815.9349 70.4874 788.5887 43.1837 788.5887 C 43.0617 788.5887 43.1837 798.3555 43.1837 798.3555 C 43.1837 798.3555 60.736 796.4016 60.736 815.9349 Z" fill="#a2cbb1"/>
			<path d="M 43.1292 81.8364 L 43.1292 91.5833 C 43.1292 91.5833 70.4874 91.5833 70.4874 64.291 C 70.4874 64.1697 60.7162 64.291 60.7162 64.291 C 60.7162 64.291 62.6708 81.8364 43.1292 81.8364 Z" fill="#a2cbb1"/>
			<path d="M 578.5406 64.291 L 568.7905 64.291 C 568.7905 64.291 568.7905 91.5833 596.0936 91.5833 C 596.2162 91.5833 596.0936 81.8364 596.0936 81.8364 C 596.0936 81.8364 578.5406 83.7855 578.5406 64.291 Z" fill="#a2cbb1"/>
		</g>
		<g>
			<path id="Line" d="M 360.3137 854.1355 L 360.3137 827.1716 " stroke="#dddddd" stroke-width="1" fill="none"/>
			<path id="Line2" d="M 357.6078 853.6863 L 357.6078 827.1716 " stroke="#dddddd" stroke-width="1" fill="none"/>
			<path id="Line3" d="M 354.9019 853.6863 L 354.9019 827.1716 " stroke="#dddddd" stroke-width="1" fill="none"/>
			<path id="Line4" d="M 352.1961 853.2367 L 352.1961 827.1716 " stroke="#dddddd" stroke-width="1" fill="none"/>
			<path id="Line5" d="M 349.4902 853.2367 L 349.4902 827.1716 " stroke="#dddddd" stroke-width="1" fill="none"/>
			<path id="Line6" d="M 346.7843 852.7874 L 346.7843 827.1716 " stroke="#dddddd" stroke-width="1" fill="none"/>
			<path id="Line7" d="M 344.0785 852.7874 L 344.0785 827.1716 " stroke="#dddddd" stroke-width="1" fill="none"/>
			<path id="Line8" d="M 341.3725 852.338 L 341.3725 827.1716 " stroke="#dddddd" stroke-width="1" fill="none"/>
			<path id="Line9" d="M 338.6666 852.338 L 338.6666 827.1716 " stroke="#dddddd" stroke-width="1" fill="none"/>
			<path id="Line10" d="M 335.9608 851.8885 L 335.9608 827.1716 " stroke="#dddddd" stroke-width="1" fill="none"/>
			<path id="Line11" d="M 333.2549 851.8885 L 333.2549 827.1716 " stroke="#dddddd" stroke-width="1" fill="none"/>
			<path id="Line12" d="M 330.549 851.8885 L 330.549 827.1716 " stroke="#dddddd" stroke-width="1" fill="none"/>
			<path id="Line13" d="M 327.8431 851.8885 L 327.8431 827.1716 " stroke="#dddddd" stroke-width="1" fill="none"/>
			<path id="Line14" d="M 325.1373 851.8885 L 325.1373 827.1716 " stroke="#dddddd" stroke-width="1" fill="none"/>
			<path id="Line15" d="M 322.4314 851.8885 L 322.4314 827.1716 " stroke="#dddddd" stroke-width="1" fill="none"/>
			<path id="Line16" d="M 319.7255 851.8885 L 319.7255 827.1716 " stroke="#dddddd" stroke-width="1" fill="none"/>
			<path id="Line17" d="M 317.0196 851.8885 L 317.0196 827.1716 " stroke="#dddddd" stroke-width="1" fill="none"/>
			<path id="Line18" d="M 314.3137 851.8885 L 314.3137 827.1716 " stroke="#dddddd" stroke-width="1" fill="none"/>
			<path id="Line19" d="M 311.6078 851.8885 L 311.6078 827.1716 " stroke="#dddddd" stroke-width="1" fill="none"/>
			<path id="Line20" d="M 308.9019 851.8885 L 308.9019 827.1716 " stroke="#dddddd" stroke-width="1" fill="none"/>
			<path id="Line21" d="M 306.1961 852.338 L 306.1961 827.1716 " stroke="#dddddd" stroke-width="1" fill="none"/>
			<path id="Line22" d="M 303.4902 852.338 L 303.4902 827.1716 " stroke="#dddddd" stroke-width="1" fill="none"/>
			<path id="Line23" d="M 300.7843 852.7874 L 300.7843 827.1716 " stroke="#dddddd" stroke-width="1" fill="none"/>
			<path id="Line24" d="M 298.0785 852.7874 L 298.0785 827.1716 " stroke="#dddddd" stroke-width="1" fill="none"/>
			<path id="Line25" d="M 295.3725 853.2367 L 295.3725 827.1716 " stroke="#dddddd" stroke-width="1" fill="none"/>
			<path id="Line26" d="M 292.6666 853.2367 L 292.6666 827.1716 " stroke="#dddddd" stroke-width="1" fill="none"/>
			<path id="Line27" d="M 289.9608 853.6863 L 289.9608 827.1716 " stroke="#dddddd" stroke-width="1" fill="none"/>
			<path id="Line28" d="M 287.2549 853.6863 L 287.2549 827.1716 " stroke="#dddddd" stroke-width="1" fill="none"/>
			<path id="Line29" d="M 284.549 854.1355 L 284.549 827.1716 " stroke="#dddddd" stroke-width="1" fill="none"/>
			<path id="Line30" d="M 281.8431 854.1355 L 281.8431 827.1716 " stroke="#dddddd" stroke-width="1" fill="none"/>
			<rect x="278.7976" y="825.4546" width="82.5295" height="2.247" fill="#dddddd"/>
			<path d="M 360.3137 851.8885 L 279.1373 851.8885 " stroke="#dddddd" stroke-width="1" fill="none"/>
			<path d="M 360.3137 849.6415 L 279.1373 849.6415 " stroke="#dddddd" stroke-width="1" fill="none"/>
			<path d="M 360.3137 847.3947 L 279.1373 847.3947 " stroke="#dddddd" stroke-width="1" fill="none"/>
			<path d="M 360.3137 842.9006 L 279.1373 842.9006 " stroke="#dddddd" stroke-width="1" fill="none"/>
			<path d="M 360.3137 845.1477 L 279.1373 845.1477 " stroke="#dddddd" stroke-width="1" fill="none"/>
			<path d="M 360.3137 840.6536 L 279.1373 840.6536 " stroke="#dddddd" stroke-width="1" fill="none"/>
			<path d="M 360.3137 838.4066 L 279.1373 838.4066 " stroke="#dddddd" stroke-width="1" fill="none"/>
			<path d="M 360.3137 836.1597 L 279.1373 836.1597 " stroke="#dddddd" stroke-width="1" fill="none"/>
			<path d="M 360.3137 831.6658 L 279.1373 831.6658 " stroke="#dddddd" stroke-width="1" fill="none"/>
			<path d="M 360.3137 829.4187 L 279.1373 829.4187 " stroke="#dddddd" stroke-width="1" fill="none"/>
			<path d="M 360.3137 833.9127 L 279.1373 833.9127 " stroke="#dddddd" stroke-width="1" fill="none"/>
			<path id="Ellipse" d="M 365.5 860.8766 C 365.5 861.4971 364.9952 862 364.3725 862 C 363.7499 862 363.2451 861.4971 363.2451 860.8766 C 363.2451 860.256 363.7499 859.7529 364.3725 859.7529 C 364.9952 859.7529 365.5 860.256 365.5 860.8766 Z" fill="#dddddd"/>
			<path id="Ellipse2" d="M 275.7549 860.8766 C 275.7549 861.4971 275.2501 862 274.6275 862 C 274.0048 862 273.5 861.4971 273.5 860.8766 C 273.5 860.256 274.0048 859.7529 274.6275 859.7529 C 275.2501 859.7529 275.7549 860.256 275.7549 860.8766 Z" fill="#dddddd"/>
			<path id="Line31" d="M 274.6275 860.8766 L 279.25 854.0232 " stroke="#dddddd" stroke-width="1" fill="none"/>
			<path d="M 364.3725 860.8766 L 360.3137 854.1355 L 319.8383 851.7762 L 279.1373 854.1355 L 279.1373 827.1716 " stroke="#dddddd" stroke-width="1" fill="none"/>
		</g>
		<g>
			<path id="Line32" d="M 278.6863 25.9623 L 278.6863 53.2616 " stroke="#dddddd" stroke-width="1" fill="none"/>
			<path id="Line33" d="M 281.3922 26.4171 L 281.3922 53.2616 " stroke="#dddddd" stroke-width="1" fill="none"/>
			<path id="Line34" d="M 284.0981 26.4171 L 284.0981 53.2616 " stroke="#dddddd" stroke-width="1" fill="none"/>
			<path id="Line35" d="M 286.8039 26.8723 L 286.8039 53.2616 " stroke="#dddddd" stroke-width="1" fill="none"/>
			<path id="Line36" d="M 289.5098 26.8723 L 289.5098 53.2616 " stroke="#dddddd" stroke-width="1" fill="none"/>
			<path id="Line37" d="M 292.2157 27.3273 L 292.2157 53.2616 " stroke="#dddddd" stroke-width="1" fill="none"/>
			<path id="Line38" d="M 294.9215 27.3273 L 294.9215 53.2616 " stroke="#dddddd" stroke-width="1" fill="none"/>
			<path id="Line39" d="M 297.6275 27.7822 L 297.6275 53.2616 " stroke="#dddddd" stroke-width="1" fill="none"/>
			<path id="Line40" d="M 300.3334 27.7822 L 300.3334 53.2616 " stroke="#dddddd" stroke-width="1" fill="none"/>
			<path id="Line41" d="M 303.0392 28.2372 L 303.0392 53.2616 " stroke="#dddddd" stroke-width="1" fill="none"/>
			<path id="Line42" d="M 305.7451 28.2372 L 305.7451 53.2616 " stroke="#dddddd" stroke-width="1" fill="none"/>
			<path id="Line43" d="M 308.451 28.2372 L 308.451 53.2616 " stroke="#dddddd" stroke-width="1" fill="none"/>
			<path id="Line44" d="M 311.1569 28.2372 L 311.1569 53.2616 " stroke="#dddddd" stroke-width="1" fill="none"/>
			<path id="Line45" d="M 313.8627 28.2372 L 313.8627 53.2616 " stroke="#dddddd" stroke-width="1" fill="none"/>
			<path id="Line46" d="M 316.5686 28.2372 L 316.5686 53.2616 " stroke="#dddddd" stroke-width="1" fill="none"/>
			<path id="Line47" d="M 319.2745 28.2372 L 319.2745 53.2616 " stroke="#dddddd" stroke-width="1" fill="none"/>
			<path id="Line48" d="M 321.9804 28.2372 L 321.9804 53.2616 " stroke="#dddddd" stroke-width="1" fill="none"/>
			<path id="Line49" d="M 324.6863 28.2372 L 324.6863 53.2616 " stroke="#dddddd" stroke-width="1" fill="none"/>
			<path id="Line50" d="M 327.3922 28.2372 L 327.3922 53.2616 " stroke="#dddddd" stroke-width="1" fill="none"/>
			<path id="Line51" d="M 330.0981 28.2372 L 330.0981 53.2616 " stroke="#dddddd" stroke-width="1" fill="none"/>
			<path id="Line52" d="M 332.8039 27.7822 L 332.8039 53.2616 " stroke="#dddddd" stroke-width="1" fill="none"/>
			<path id="Line53" d="M 335.5098 27.7822 L 335.5098 53.2616 " stroke="#dddddd" stroke-width="1" fill="none"/>
			<path id="Line54" d="M 338.2157 27.3273 L 338.2157 53.2616 " stroke="#dddddd" stroke-width="1" fill="none"/>
			<path id="Line55" d="M 340.9215 27.3273 L 340.9215 53.2616 " stroke="#dddddd" stroke-width="1" fill="none"/>
			<path id="Line56" d="M 343.6275 26.8723 L 343.6275 53.2616 " stroke="#dddddd" stroke-width="1" fill="none"/>
			<path id="Line57" d="M 346.3334 26.8723 L 346.3334 53.2616 " stroke="#dddddd" stroke-width="1" fill="none"/>
			<path id="Line58" d="M 349.0392 26.4171 L 349.0392 53.2616 " stroke="#dddddd" stroke-width="1" fill="none"/>
			<path id="Line59" d="M 351.7451 26.4171 L 351.7451 53.2616 " stroke="#dddddd" stroke-width="1" fill="none"/>
			<path id="Line60" d="M 354.451 25.9623 L 354.451 53.2616 " stroke="#dddddd" stroke-width="1" fill="none"/>
			<path id="Line61" d="M 357.1569 25.9623 L 357.1569 53.2616 " stroke="#dddddd" stroke-width="1" fill="none"/>
			<rect x="277.6729" y="52.725" width="82.5295" height="2.275" fill="#dddddd"/>
			<path d="M 278.6863 28.2372 L 359.8627 28.2372 " stroke="#dddddd" stroke-width="1" fill="none"/>
			<path d="M 278.6863 30.5123 L 359.8627 30.5123 " stroke="#dddddd" stroke-width="1" fill="none"/>
			<path d="M 278.6863 32.787 L 359.8627 32.787 " stroke="#dddddd" stroke-width="1" fill="none"/>
			<path d="M 278.6863 37.3369 L 359.8627 37.3369 " stroke="#dddddd" stroke-width="1" fill="none"/>
			<path d="M 278.6863 35.062 L 359.8627 35.062 " stroke="#dddddd" stroke-width="1" fill="none"/>
			<path d="M 278.6863 39.6119 L 359.8627 39.6119 " stroke="#dddddd" stroke-width="1" fill="none"/>
			<path d="M 278.6863 41.8868 L 359.8627 41.8868 " stroke="#dddddd" stroke-width="1" fill="none"/>
			<path d="M 278.6863 44.1617 L 359.8627 44.1617 " stroke="#dddddd" stroke-width="1" fill="none"/>
			<path d="M 278.6863 48.7115 L 359.8627 48.7115 " stroke="#dddddd" stroke-width="1" fill="none"/>
			<path d="M 278.6863 50.9866 L 359.8627 50.9866 " stroke="#dddddd" stroke-width="1" fill="none"/>
			<path d="M 278.6863 46.4366 L 359.8627 46.4366 " stroke="#dddddd" stroke-width="1" fill="none"/>
			<path id="Ellipse3" d="M 273.5 19.1374 C 273.5 18.5092 274.0048 18 274.6275 18 C 275.2501 18 275.7549 18.5092 275.7549 19.1374 C 275.7549 19.7657 275.2501 20.275 274.6275 20.275 C 274.0048 20.275 273.5 19.7657 273.5 19.1374 Z" fill="#dddddd"/>
			<path id="Ellipse4" d="M 363.2451 19.1374 C 363.2451 18.5092 363.7499 18 364.3725 18 C 364.9952 18 365.5 18.5092 365.5 19.1374 C 365.5 19.7657 364.9952 20.275 364.3725 20.275 C 363.7499 20.275 363.2451 19.7657 363.2451 19.1374 Z" fill="#dddddd"/>
			<path id="Line62" d="M 364.3725 19.1374 L 359.75 26.076 " stroke="#dddddd" stroke-width="1" fill="none"/>
			<path d="M 274.6275 19.1374 L 278.6863 25.9623 L 319.1617 28.351 L 359.8627 25.9623 L 359.8627 53.2616 " stroke="#dddddd" stroke-width="1" fill="none"/>
		</g>
	</g>
</svg>