<?xml version="1.0" standalone="no"?>
<!-- Generator: Adobe Fireworks 10, Export SVG Extension by Aaron Beall (http://fireworks.abeall.com) . Version: 0.6.1  -->
<!DOCTYPE svg PUBLIC "-//W3C//DTD SVG 1.1//EN" "http://www.w3.org/Graphics/SVG/1.1/DTD/svg11.dtd">
<svg id="Untitled-Page%201" viewBox="0 0 85 85" style="background-color:#ffffff00" version="1.1"
	xmlns="http://www.w3.org/2000/svg" xmlns:xlink="http://www.w3.org/1999/xlink" xml:space="preserve"
	x="0px" y="0px" width="85px" height="85px"
>
	<g id="Layer%201">
		<g>
			<path d="M 46.5989 35.9173 L 57.9957 19.6144 L 44.129 6.6861 L 24.7701 13.6491 L 25.4138 31.898 L 46.5989 35.9173 ZM 46.5989 35.9173 L 46.5989 35.9173 Z" fill="#b4b4b4"/>
			<path d="M 39.2221 68.9591 L 49.6468 79.8172 L 67.8555 72.0398 L 70.8311 55.9512 L 52.7538 53.7261 L 39.2221 68.9591 ZM 39.2221 68.9591 L 39.2221 68.9591 Z" fill="#b4b4b4"/>
			<path d="M 2.694 57.7133 L 2.9223 57.9957 C 9.124 73.8002 24.5007 85 42.4992 85 C 65.9702 85 85 65.9686 85 42.5 C 85 19.0289 65.9702 0 42.4992 0 C 19.0289 0 0 19.0289 0 42.5 C 0 47.7534 0.9582 52.7851 2.7055 57.4308 L 2.694 57.7133 ZM 2.2129 42.5 C 2.2129 37.1333 3.2779 32.0088 5.1959 27.3196 L 15.2453 14.852 L 17.854 10.6677 C 24.6723 5.379 33.2249 2.2129 42.4992 2.2129 C 42.7225 2.2129 42.9466 2.226 43.17 2.2334 L 47.6631 3.8879 L 57.5753 5.1491 C 63.9207 7.7249 69.4698 11.8616 73.7345 17.0919 L 72.0858 24.2774 L 78.5954 42.638 L 82.7535 43.6938 C 82.1163 65.3593 64.3149 82.7781 42.4992 82.7781 C 31.6409 82.7781 21.7821 78.4575 14.5244 71.4404 L 22.347 64.7288 L 14.8856 45.4937 L 3.2048 41.4753 L 2.9363 50.0476 C 2.4698 47.6023 2.2129 45.0798 2.2129 42.5 L 2.2129 42.5 ZM 2.2129 42.5 L 2.2129 42.5 Z" fill="#b4b4b4"/>
		</g>
	</g>
</svg>