<?xml version="1.0" standalone="no"?>
<!-- Generator: Adobe Fireworks 10, Export SVG Extension by Aaron Beall (http://fireworks.abeall.com) . Version: 0.6.1  -->
<!DOCTYPE svg PUBLIC "-//W3C//DTD SVG 1.1//EN" "http://www.w3.org/Graphics/SVG/1.1/DTD/svg11.dtd">
<svg id="Untitled-Page%201" viewBox="0 0 85 85" style="background-color:#ffffff00" version="1.1"
	xmlns="http://www.w3.org/2000/svg" xmlns:xlink="http://www.w3.org/1999/xlink" xml:space="preserve"
	x="0px" y="0px" width="85px" height="85px"
>
	<g id="Layer%201">
		<g>
			<path id="Ellipse" d="M 5 42.5 C 5 21.7891 21.7891 5 42.5 5 C 63.2109 5 80 21.7891 80 42.5 C 80 63.2109 63.2109 80 42.5 80 C 21.7891 80 5 63.2109 5 42.5 Z" stroke="#b4b4b4" stroke-width="10" fill="none"/>
			<g>
				<path d="M 34.6239 30.8043 C 30.7336 30.8043 28.5625 33.1045 28.5625 37.4475 C 28.5931 41.8611 30.8559 44.5839 34.417 44.5839 C 37.9644 44.5839 40.4375 41.8964 40.4375 37.0591 C 40.4375 32.9633 38.5518 30.8043 34.6653 30.8043 L 34.6239 30.8043 L 34.6239 30.8043 ZM 34.5412 32.6793 C 36.7344 32.6793 37.5625 34.7287 37.5625 37.2709 C 37.5625 40.0603 36.5689 41.8964 34.5412 41.8964 C 32.5134 41.8964 31.4063 39.9544 31.4375 37.3063 C 31.4375 34.7287 32.4721 32.6793 34.4998 32.6793 L 34.5412 32.6793 L 34.5412 32.6793 ZM 37.3551 54.4375 L 50.4584 30.8043 L 47.5617 30.8043 L 34.4584 54.4375 L 37.3551 54.4375 L 37.3551 54.4375 ZM 50.6239 40.6563 C 46.7574 40.6563 44.5625 43.7567 44.5625 47.9527 C 44.5625 52.2863 46.8811 54.1957 50.417 54.1957 C 53.9953 54.1957 56.4375 52.2863 56.4375 47.6088 C 56.4375 43.5847 54.5518 40.6563 50.6653 40.6563 L 50.6239 40.6563 L 50.6239 40.6563 ZM 50.5412 43.3438 C 52.7344 43.3438 53.5625 45.3044 53.5625 47.8151 C 53.5625 50.5322 52.6102 52.3207 50.5412 52.3207 C 48.5134 52.3207 47.4066 50.3947 47.4375 47.8495 C 47.4375 45.3388 48.4721 43.3438 50.4998 43.3438 L 50.5412 43.3438 L 50.5412 43.3438 Z" fill="#b4b4b4"/>
			</g>
		</g>
	</g>
</svg>