<?xml version="1.0" standalone="no"?>
<!-- Generator: Adobe Fireworks 10, Export SVG Extension by Aaron Beall (http://fireworks.abeall.com) . Version: 0.6.1  -->
<!DOCTYPE svg PUBLIC "-//W3C//DTD SVG 1.1//EN" "http://www.w3.org/Graphics/SVG/1.1/DTD/svg11.dtd">
<svg id="Untitled-Page%201" viewBox="0 0 95 101" style="background-color:#ffffff00" version="1.1"
	xmlns="http://www.w3.org/2000/svg" xmlns:xlink="http://www.w3.org/1999/xlink" xml:space="preserve"
	x="0px" y="0px" width="95px" height="101px"
>
	<defs>
		<clipPath id="mask1">
			<path d="M 0.9992 0 L 94.6691 0 L 94.6691 100.0896 L 0.9992 100.0896 L 0.9992 0 Z" fill="none"/>
		</clipPath>
	</defs>
	<g>
			<path d="M 0.9992 0 L 94.6691 0 L 94.6691 100.0896 L 0.9992 100.0896 L 0.9992 0 Z" fill="none"/>
		<g clip-path="url(#mask1)">
			<path d="M 92.0093 46.1931 C 90.3869 43.3097 87.4355 41.5167 84.3212 41.5167 C 82.9841 41.5167 81.6715 41.8588 80.522 42.5022 L 74.8638 45.6871 C 74.8965 46.2002 74.8721 46.6899 74.7987 47.1614 C 74.6845 47.8222 74.4481 48.4331 74.0975 48.994 L 81.753 44.6862 C 82.552 44.229 83.4325 44.0183 84.3212 44.0183 C 86.4572 44.0183 88.6177 45.2635 89.8304 47.4138 C 91.5527 50.4684 92.5392 54.2478 89.7917 55.7873 L 67.9095 71.2166 C 67.7546 73.6092 67.3551 76.3786 66.4257 78.3905 C 65.8387 78.1461 65.2028 77.9751 64.5424 77.9343 L 52.2724 77.2501 C 52.1746 77.69 52.0604 78.1054 51.93 78.4883 C 51.8647 78.6776 51.7832 78.8385 51.7099 79.0177 C 52.0604 79.2295 52.3702 79.4983 52.6555 79.7834 L 64.4038 80.435 C 64.5668 80.4431 64.7136 80.4757 64.8685 80.5103 C 65.3414 80.606 65.7816 80.7933 66.1485 81.0785 C 66.4828 81.3309 66.7681 81.6486 66.9801 82.0151 C 67.2817 82.5365 67.4448 83.1474 67.404 83.7909 L 66.8721 93.3046 C 66.7763 94.9988 65.374 96.3123 63.7026 96.3123 C 63.6374 96.3123 63.5804 96.3123 63.5233 96.302 L 54.7508 95.8133 C 54.5552 96.2532 54.3269 96.6706 54.0252 97.027 C 53.6339 97.4994 53.1529 97.8924 52.623 98.1999 L 63.3847 98.8026 C 63.4907 98.8108 63.5967 98.8108 63.7026 98.8108 C 66.7192 98.8108 69.2058 96.4568 69.377 93.4451 L 69.907 83.9293 C 69.9885 82.4305 69.4912 80.997 68.5046 79.873 C 69.4341 78.083 70.0374 75.67 70.3146 72.5747 L 91.1532 57.8969 C 93.8763 56.276 95.4987 52.3744 92.0093 46.1931 L 92.0093 46.1931 ZM 92.0093 46.1931 L 92.0093 46.1931 Z" fill="#ffffff"/>
			<path d="M 71.774 39.0161 C 72.0267 39.3419 72.2305 39.6606 72.4507 39.9772 C 72.899 40.6054 73.2823 41.2163 73.6083 41.8272 C 73.7143 39.742 73.8692 37.4522 74.1056 34.9923 L 74.391 31.9703 L 74.285 31.9785 L 75.6384 17.4636 C 75.9563 15.3539 75.4753 13.2534 74.285 11.5185 C 73.0539 9.7255 71.2114 8.5536 69.108 8.2196 C 68.7085 8.1535 68.3008 8.1219 67.9014 8.1219 C 66.3503 8.1219 64.9093 8.5699 63.6782 9.3579 C 63.1075 5.5887 60.0175 2.6319 56.202 2.4772 C 56.0961 2.4691 55.9901 2.4691 55.8841 2.4691 C 52.6555 2.4691 49.8673 4.4565 48.6362 7.3481 C 48.5628 7.2819 48.4731 7.2422 48.3998 7.1852 C 48.7177 7.9427 48.8808 8.7562 48.946 9.588 C 48.9623 9.7988 49.0112 10.0024 49.0112 10.2234 L 49.6961 20.9996 L 50.4625 10.4423 C 50.5848 7.3797 52.9898 4.9686 55.8841 4.9686 C 55.9493 4.9686 56.0227 4.9686 56.0961 4.9778 C 59.08 5.0999 61.3954 7.7381 61.2649 10.8831 L 60.7024 24.6976 L 62.4716 15.4598 C 62.92 12.6425 65.2599 10.6225 67.8932 10.6225 C 68.1622 10.6225 68.4313 10.6469 68.7085 10.6866 C 71.6598 11.1601 73.6491 14.0497 73.1518 17.1632 L 71.5049 34.7643 L 71.6028 34.7479 C 71.4805 36.0511 71.3826 37.2811 71.3011 38.4866 C 71.4641 38.6577 71.6191 38.8287 71.774 39.0161 L 71.774 39.0161 ZM 71.774 39.0161 L 71.774 39.0161 Z" fill="#ffffff"/>
			<path d="M 1.1368 24.0378 L 5.9643 44.6048 C 6.1752 45.5078 6.6237 46.2827 7.2127 46.917 C 7.4797 50.3869 7.7487 54.2661 7.7487 55.9339 C 7.7487 58.972 13.9541 78.0891 18.3474 82.0803 C 19.0648 81.5448 19.9291 81.1762 20.883 81.0785 L 33.6666 79.7915 L 34.7438 79.6775 L 35.2013 79.6388 L 36.3988 79.5146 L 37.2793 79.4249 L 39.2044 79.2295 L 40.4752 79.0992 L 48.4731 78.2928 L 48.5058 78.2928 C 48.677 78.2765 48.8563 78.2683 49.0275 78.2683 C 49.3944 78.2683 49.7532 78.3091 50.0956 78.3824 C 50.1201 78.3905 50.1363 78.3987 50.1608 78.4068 C 50.169 78.3987 50.169 78.3905 50.169 78.3905 C 50.332 78.0077 50.4706 77.5923 50.5766 77.1606 C 51.1636 74.8656 51.1147 71.9394 50.8783 69.4144 L 70.8934 49.997 L 71.8392 49.0837 C 72.0675 48.9044 72.255 48.7019 72.4262 48.4972 C 73.6491 47.0066 73.3148 44.9296 72.2957 42.8943 C 71.9696 42.2416 71.5783 41.5981 71.138 40.9719 C 70.926 40.6614 70.6978 40.3529 70.4613 40.0505 C 69.0101 38.226 66.923 37.2485 64.9011 37.2485 C 63.6048 37.2485 62.3411 37.6487 61.2894 38.4785 L 50.6337 46.9007 C 50.0874 43.6762 49.1498 37.3381 48.6688 29.4952 L 48.5628 29.5267 L 47.3399 10.2712 C 47.3399 10.0198 47.3002 9.7754 47.2665 9.5229 C 47.1932 8.8305 47.0138 8.1779 46.7366 7.567 C 46.4278 6.9082 46.0355 6.3136 45.5381 5.8076 C 44.4783 4.7334 43.0444 4.0574 41.4536 4.0574 L 41.4454 4.0574 C 38.1914 4.0574 35.552 6.8349 35.552 10.2631 L 35.3716 15.5331 L 35.3308 16.7967 L 35.291 18.0745 L 35.2095 20.5099 L 34.6205 15.4598 L 33.4648 5.5317 C 33.0969 2.354 30.5135 0 27.5367 0 C 27.3237 0 27.1046 0.0081 26.8835 0.0417 C 23.6549 0.4154 21.3487 3.478 21.7471 6.892 L 23.127 23.2793 L 20.5181 10.2071 C 19.9627 7.4041 17.6799 5.4339 15.2025 5.4339 C 14.8906 5.4339 14.591 5.4655 14.2792 5.5236 C 11.4603 6.0846 9.6819 9.0912 10.3098 12.2343 L 13.4241 30.83 L 11.2718 21.6675 C 10.7083 19.2636 8.5732 17.6509 6.2088 17.6509 C 5.8185 17.6509 5.418 17.6927 5.0186 17.7893 C 2.2221 18.442 0.4856 21.244 1.1368 24.0378 L 1.1368 24.0378 ZM 1.1368 24.0378 L 1.1368 24.0378 Z" fill="#ffffff"/>
		</g>
		<path d="M 53.5198 93.4023 L 52.5496 83.8173 L 52.4762 83.0497 C 52.4599 82.8786 52.4192 82.7076 52.3784 82.5446 C 52.2479 82.0478 52.0196 81.5997 51.7099 81.2169 C 51.4815 80.9339 51.2125 80.6956 50.9108 80.5022 C 50.6744 80.3454 50.4135 80.2232 50.1363 80.1255 C 49.8347 80.0196 49.5167 79.9625 49.1906 79.9463 C 49.1315 79.9463 49.0846 79.93 49.0275 79.93 C 48.9134 79.93 48.7911 79.9381 48.677 79.9463 L 45.0642 80.3128 L 40.5088 80.7771 L 36.6679 81.1599 L 35.7874 81.2495 L 34.4747 81.3819 L 33.1948 81.5102 L 21.046 82.732 C 20.8269 82.7564 20.6078 82.8053 20.403 82.8623 C 19.9383 83.0008 19.5225 83.2289 19.1637 83.5302 C 18.9273 83.7339 18.7316 83.97 18.5523 84.2307 C 18.1028 84.8823 17.8593 85.6805 17.9489 86.5277 L 18.9925 96.8804 C 19.1718 98.6662 20.6812 100 22.4401 100 C 22.5553 100 22.6786 99.9919 22.7907 99.9838 L 44.8207 97.7601 L 50.4135 97.198 C 50.813 97.1573 51.1718 97.0351 51.5142 96.8804 C 52.0849 96.6197 52.5659 96.2124 52.9083 95.7095 C 53.3648 95.0558 53.6094 94.2576 53.5198 93.4023 L 53.5198 93.4023 Z" fill="#ffffff"/>
	</g>
</svg>