<?xml version="1.0" standalone="no"?>
<!-- Generator: Adobe Fireworks 10, Export SVG Extension by Aaron Beall (http://fireworks.abeall.com) . Version: 0.6.1  -->
<!DOCTYPE svg PUBLIC "-//W3C//DTD SVG 1.1//EN" "http://www.w3.org/Graphics/SVG/1.1/DTD/svg11.dtd">
<svg id="Untitled-Page%201" viewBox="0 0 161 64" style="background-color:#ffffff00" version="1.1"
	xmlns="http://www.w3.org/2000/svg" xmlns:xlink="http://www.w3.org/1999/xlink" xml:space="preserve"
	x="0px" y="0px" width="161px" height="64px"
>
	<g id="Layer%201">
		<g>
			<path d="M 28 22 L 28 64 L 133 64 L 133 22 L 127.802 22 L 127.802 58.75 L 33.198 58.75 L 33.198 22 L 28 22 Z" fill="#b4b4b4"/>
			<path d="M 105.2656 18.1152 L 105.2656 0.1902 L 55.4001 0.1902 L 55.4001 18.1152 L 59.1067 18.1152 L 59.1067 3.9246 L 101.5591 3.9246 L 101.5591 18.1152 L 105.2656 18.1152 Z" fill="#b4b4b4"/>
			<path d="M 161 22 L 0 22 L 0 18 L 161 18 L 161 22 Z" fill="#b4b4b4"/>
			<path id="Line" d="M 89 26 L 97.6666 17.3334 " stroke="#f2f2f2" stroke-width="5" fill="none"/>
			<path id="Ellipse" d="M 60 48 C 60 44.1339 63.1339 40.9999 66.9999 40.9999 C 70.8661 40.9999 74 44.1339 74 48 C 74 51.866 70.8661 55 66.9999 55 C 63.1339 55 60 51.866 60 48 Z" fill="#b4b4b4"/>
			<path d="M 93 15 L 100 15 L 100 22 L 93 15 Z" stroke="#f2f2f2" stroke-width="1" fill="#b4b4b4"/>
			<path id="Line2" d="M 67.3334 48.1667 L 97.6666 17.3334 " stroke="#b4b4b4" stroke-width="3" fill="none"/>
		</g>
	</g>
</svg>