<?xml version="1.0" standalone="no"?>
<!-- Generator: Adobe Fireworks 10, Export SVG Extension by Aaron Beall (http://fireworks.abeall.com) . Version: 0.6.1  -->
<!DOCTYPE svg PUBLIC "-//W3C//DTD SVG 1.1//EN" "http://www.w3.org/Graphics/SVG/1.1/DTD/svg11.dtd">
<svg id="Untitled-Page%201" viewBox="0 0 95 60" style="background-color:#ffffff00" version="1.1"
	xmlns="http://www.w3.org/2000/svg" xmlns:xlink="http://www.w3.org/1999/xlink" xml:space="preserve"
	x="0px" y="0px" width="95px" height="60px"
>
	<g id="Layer%201">
		<g>
			<g>
				<path d="M 28.3831 5.6259 C 27.0781 6.21 26.4331 7.3228 26.0735 8.1514 C 25.7295 8.9445 25.5696 9.9158 25.7437 11.5541 C 25.9292 13.3037 26.8533 15.0393 27.3933 16.1104 C 28.0938 17.5004 29.8889 19.8855 30.8574 21.1052 C 32.5142 23.1913 35.4558 27.2393 37.6208 29.3389 C 40.0928 31.7356 45.3258 36.2178 47.8486 38.5605 C 48.8525 39.4926 50.825 41.3934 51.8076 42.348 C 53.6467 44.1343 56.7893 46.762 58.571 48.6056 C 59.7058 49.7795 62.5398 53.064 63.52 54.3691 C 64.3447 55.4672 65.4937 56.0924 66.3243 56.1805 C 67.5963 56.3156 70.0559 55.0947 71.1082 54.3691 C 72.2861 53.5566 73.0646 52.8247 74.325 51.4668 C 75.7883 49.8901 77.8027 46.7491 78.5315 45.4768 C 79.5425 43.7117 81.1232 39.9004 81.5007 37.9019 C 81.5852 37.4567 81.8269 36.4049 81.5007 36.0903 C 79.7507 34.4012 73.332 37.2296 71.7681 36.4198 C 70.0979 35.5552 69.7627 34.2018 69.4585 32.6323 C 68.9844 30.1827 70.7292 22.5621 68.6338 20.2817 C 67.1672 18.6859 62.1062 19.6726 60.0557 18.9644 C 58.3108 18.3617 54.855 16.9548 53.251 16.0415 C 51.4087 14.9923 47.8215 12.9751 45.8278 11.9658 C 44.1948 11.1392 40.951 9.479 39.2705 8.7546 C 37.5597 8.0176 34.3269 6.0266 32.5071 5.6259 C 31.5005 5.4047 29.9773 4.9126 28.3831 5.6259 Z" stroke="#b4b4b4" stroke-width="2" fill="none"/>
				<g>
					<path d="M 71.4542 28.9143 C 71.4065 29.7499 71.3743 30.4749 71.3685 30.9971 C 71.3723 31.2062 71.3685 31.4224 71.3647 31.6359 C 71.355 33.1475 71.3853 34.032 72.4292 34.573 C 72.9034 34.8187 74.6858 34.5813 76.1183 34.3903 C 78.1681 34.1176 80.2694 33.8378 81.7167 34.2198 L 95 23.4929 L 95 0 L 70.9806 20.4889 C 71.79 22.8136 71.6082 26.2416 71.4542 28.9143 Z" fill="#b4b4b4"/>
				</g>
				<path d="M 35.9191 7.5197 C 35.9191 7.5197 52.5706 29.5254 58.0762 30.7938 C 62.5714 31.8295 62.1552 29.7267 61.8704 28.6802 C 61.2008 26.2209 58.7361 18.9805 58.7361 18.9805 C 58.7361 18.9805 44.28 10.1055 35.9191 7.5197 Z" fill="#b4b4b4"/>
				<path d="M 54.1821 51.7452 L 51.412 49.1755 L 53.0835 45.444 L 57.5542 49.5911 L 54.1821 51.7452 Z" fill="#b4b4b4"/>
				<path d="M 58.8044 57 L 56.2063 54.2572 L 58.1162 50.6407 L 62.3091 55.0676 L 58.8044 57 Z" fill="#b4b4b4"/>
				<path d="M 33.0825 31.7974 L 30.842 29.0532 L 32.4446 25.8208 L 36.3005 30.543 L 33.0825 31.7974 Z" fill="#b4b4b4"/>
				<path d="M 26.9551 22.9879 L 25 20.1377 L 26.3596 17.2875 L 29.8077 22.3138 L 26.9551 22.9879 Z" fill="#b4b4b4"/>
				<path d="M 71.933 53.0518 C 71.933 53.0518 56.2366 38.4177 51.412 33.7026 C 45.6653 28.0864 34.6516 19.2964 31.4348 9.9897 C 31.0372 8.839 30.2814 5.2593 30.2814 5.2593 L 27.4036 6.2563 L 25.9196 8.5681 L 26.5408 14.3298 L 34.9724 26.3669 L 44.3302 35.4001 L 65.1947 55.8054 L 68.2214 56.1908 L 71.933 53.0518 Z" fill="#b4b4b4"/>
			</g>
			<path id="Ellipse" d="M 3 35 C 3 22.8496 12.8496 13 25 13 C 37.1504 13 47 22.8496 47 35 C 47 47.1504 37.1504 57 25 57 C 12.8496 57 3 47.1504 3 35 Z" stroke="#f2f2f2" stroke-width="3" fill="#b4b4b4"/>
		</g>
	</g>
</svg>