<?xml version="1.0" standalone="no"?>
<!-- Generator: Adobe Fireworks 10, Export SVG Extension by Aaron Beall (http://fireworks.abeall.com) . Version: 0.6.1  -->
<!DOCTYPE svg PUBLIC "-//W3C//DTD SVG 1.1//EN" "http://www.w3.org/Graphics/SVG/1.1/DTD/svg11.dtd">
<svg id="Untitled-Page%201" viewBox="0 0 120 120" style="background-color:#ffffff00" version="1.1"
	xmlns="http://www.w3.org/2000/svg" xmlns:xlink="http://www.w3.org/1999/xlink" xml:space="preserve"
	x="0px" y="0px" width="120px" height="120px"
>
	<g id="Layer%201">
		<g>
			<g>
				<path d="M 60 0 C 26.7011 0 0 27.0003 0 60 C 0 92.9995 26.7011 120 60 120 C 93.2989 120 120 92.9995 120 60 C 120 27.0003 92.9999 0 60 0 ZM 60 108.0002 C 33.6006 108.0002 12 86.3991 12 60 C 12 33.6009 33.6006 12 60 12 C 86.3994 12 108.0001 33.6006 108.0001 60 C 108.0001 86.3994 86.3994 108.0002 60 108.0002 Z" fill="#b4b4b4"/>
			</g>
			<g>
				<path opacity="0.898" d="M 63.0001 30 L 54.0001 30 L 54.0001 65.9999 L 85.5001 84.8993 L 90 77.3993 L 63.0001 61.4997 L 63.0001 30 Z" fill="#b4b4b4"/>
			</g>
		</g>
	</g>
</svg>